/* XPM */
static char * audacious_xpm[] = {
"32 32 115 2",
"  	c None",
". 	c #000000",
"+ 	c #040404",
"@ 	c #282828",
"# 	c #3A3A3A",
"$ 	c #272727",
"% 	c #0D0D0D",
"& 	c #3F3F3F",
"* 	c #979797",
"= 	c #CDCDCD",
"- 	c #D9D9D9",
"; 	c #CCCCCC",
"> 	c #959595",
", 	c #3E3E3E",
"' 	c #131313",
") 	c #909090",
"! 	c #CACACA",
"~ 	c #C9C9C9",
"{ 	c #8F8F8F",
"] 	c #383838",
"^ 	c #B6B6B6",
"/ 	c #373737",
"( 	c #141414",
"_ 	c #B7B7B7",
": 	c #0E0E0E",
"< 	c #919191",
"[ 	c #A7A7A7",
"} 	c #757575",
"| 	c #5A5A5A",
"1 	c #3B3B3B",
"2 	c #343434",
"3 	c #4F4F4F",
"4 	c #929292",
"5 	c #C5C5C5",
"6 	c #C3C3C3",
"7 	c #1B1B1B",
"8 	c #0A0A0A",
"9 	c #CBCBCB",
"0 	c #404040",
"a 	c #989898",
"b 	c #BDBDBD",
"c 	c #202020",
"d 	c #1C1C1C",
"e 	c #010101",
"f 	c #5E5E5E",
"g 	c #D6D6D6",
"h 	c #9B9B9B",
"i 	c #080808",
"j 	c #CFCFCF",
"k 	c #B1B1B1",
"l 	c #ACACAC",
"m 	c #B0B0B0",
"n 	c #ADADAD",
"o 	c #181818",
"p 	c #2F2F2F",
"q 	c #B2B2B2",
"r 	c #7E7E7E",
"s 	c #434343",
"t 	c #1D1D1D",
"u 	c #2E2E2E",
"v 	c #414141",
"w 	c #222222",
"x 	c #020202",
"y 	c #151515",
"z 	c #A6A6A6",
"A 	c #424242",
"B 	c #BBBBBB",
"C 	c #2B2B2B",
"D 	c #050505",
"E 	c #2D2D2D",
"F 	c #030303",
"G 	c #B8B8B8",
"H 	c #323232",
"I 	c #A0A0A0",
"J 	c #0F0F0F",
"K 	c #171717",
"L 	c #A1A1A1",
"M 	c #0C0C0C",
"N 	c #333333",
"O 	c #C4C4C4",
"P 	c #313131",
"Q 	c #D2D2D2",
"R 	c #161616",
"S 	c #1A1A1A",
"T 	c #D3D3D3",
"U 	c #A2A2A2",
"V 	c #C6C6C6",
"W 	c #2A2A2A",
"X 	c #A4A4A4",
"Y 	c #484848",
"Z 	c #CECECE",
"` 	c #363636",
" .	c #090909",
"..	c #070707",
"+.	c #505050",
"@.	c #1E1E1E",
"#.	c #7D7D7D",
"$.	c #D5D5D5",
"%.	c #494949",
"&.	c #111111",
"*.	c #999999",
"=.	c #C2C2C2",
"-.	c #969696",
";.	c #8E8E8E",
">.	c #B9B9B9",
",.	c #D7D7D7",
"'.	c #AEAEAE",
").	c #9A9A9A",
"!.	c #BEBEBE",
"~.	c #9C9C9C",
"{.	c #4C4C4C",
"].	c #A8A8A8",
"^.	c #D4D4D4",
"/.	c #4A4A4A",
"(.	c #121212",
". . . . . . . . . . . . . . . . . . . . . . . . . . . . . . . . ",
". . . . . . . . . . . . . . . . . . . . . . . . . . . . . . . . ",
". . . . . . . . . . . . . . . . . . . . . . . . . . . . . . . . ",
". . . . . . . . . . . . . . . . . . . . . . . . . . . . . . . . ",
". . . . . . . . . . . . . . . . . . . . . . . . . . . . . . . . ",
". . . . . . . . . . . . . + @ # # $ + . . . . . . . . . . . . . ",
". . . . . . . . . . % & * = - - - - ; > , % . . . . . . . . . . ",
". . . . . . . . . ' ) ! - - - - - - - - ~ { ' . . . . . . . . . ",
". . . . . . . . ] ^ - - - - - - - - - - - - ^ / . . . . . . . . ",
". . . . . . . ( _ - - - - - - - - - - - - - - ^ ( . . . . . . . ",
". . . . . . : < - - - - [ } | 1 2 3 4 5 - - - - 4 : . . . . . . ",
". . . . . . & ! - - - 6 7 . . . . . 8 , 9 - - - ! 0 . . . . . . ",
". . . . . . a - - - - b c 7 c d e . . . f g - - - h . . . . . . ",
". . . . . i j - - - - - k l m n o . . . 2 5 - - - j i . . . . . ",
". . . . . p - - - - - - q r s ( . . . . t n - - - - u . . . . . ",
". . . . . v - - - - - m w x . . . . . . y z - - - - v . . . . . ",
". . . . . A - - - - B C . . D u E F . . $ G - - - - s . . . . . ",
". . . . . H - - - - I J . . K L > M . . N O - - - - P . . . . . ",
". . . . . M Q - - - [ R . . e S K . . . 2 O - - - T M . . . . . ",
". . . . . . U - - - V ] . . . . . . . . W B - - - X . . . . . . ",
". . . . . . Y Z - - - B `  ...@ 3 +.w @.#.$.- - Z %.. . . . . . ",
". . . . . . &.*.- - - - =.-.;.>.,.g q '.$.- - - ).&.. . . . . . ",
". . . . . . . d !.- - - - - - - - - - - - - - b d . . . . . . . ",
". . . . . . . . s !.- - - - - - - - - - - - b A . . . . . . . . ",
". . . . . . . . . t ~.j - - - - - - - - j ~.d . . . . . . . . . ",
". . . . . . . . . . ' {.].^.- - - - T z /.(.. . . . . . . . . . ",
". . . . . . . . . . . . . J / /././ : . . . . . . . . . . . . . ",
". . . . . . . . . . . . . . . . . . . . . . . . . . . . . . . . ",
". . . . . . . . . . . . . . . . . . . . . . . . . . . . . . . . ",
". . . . . . . . . . . . . . . . . . . . . . . . . . . . . . . . ",
". . . . . . . . . . . . . . . . . . . . . . . . . . . . . . . . ",
". . . . . . . . . . . . . . . . . . . . . . . . . . . . . . . . "};
